<?xml version="1.0" encoding="UTF-8" standalone="no"?>
<!-- Created with Inkscape (http://www.inkscape.org/) -->

<svg
   width="117.09877mm"
   height="60mm"
   viewBox="0 0 117.09877 60"
   version="1.1"
   id="svg1"
   xml:space="preserve"
   xmlns="http://www.w3.org/2000/svg"
   xmlns:svg="http://www.w3.org/2000/svg"><defs
     id="defs1" /><g
     id="layer6"
     transform="translate(-493.02866,-135)"><rect
       style="display:none;fill:#000000;fill-opacity:1;stroke:#ffffff;stroke-width:0.206;stroke-linecap:round;stroke-linejoin:round;stroke-opacity:1;paint-order:markers stroke fill"
       id="rect2"
       width="117.09877"
       height="60"
       x="493.02866"
       y="135"
       ry="0.2272072" /><path
       id="path124-0-3-4"
       style="fill:#ffffff;fill-opacity:1;stroke:#ffffff;stroke-width:0.705556;stroke-linecap:round;stroke-linejoin:round;stroke-dasharray:none;stroke-opacity:1;paint-order:markers stroke fill"
       d="m 574.23358,166.93059 4.62958,-7.72458 m 3.5018,2.54447 -3.5018,-2.54447 m -31.24582,0.98516 -8.74961,5.52945 m -5.85395,1.66424 5.85395,-1.66424 m -5.85395,1.66424 -6.57188,5.14407 m 59.42486,-14 1.19657,-2.40173 m -7.23585,14.10867 -4.01699,-1.94623 m 4.01699,1.94623 0.61442,3.29306 m -1.22883,1.40527 1.22883,-1.40527 m -1.22883,1.40527 -1.18324,-1.6263 m -0.14237,-1.65614 0.14237,1.65614 m -0.14237,-1.65614 -4.15395,-1.45797 m 0.14729,5.52626 -2.64456,-6.83834 m 2.64456,6.83834 -2.08612,3.43063 m -2.18283,0.37825 2.18283,-0.37825 m -2.18283,0.37825 0.0532,-2 m 1.77682,-2 -1.77682,2 m -30.89148,2.093 1.04982,-2.25911 m -1.04982,2.25911 -3.68448,1.75978 m 2.07007,-3.88495 -2.07007,3.88495 m 16.14733,-11.49862 -5.30757,4.64584 m -10.48698,1.60014 10.48698,-1.60014 m -10.48698,1.60014 -3.08708,4.89986 m -3.91292,1.28958 3.91292,-1.28958 m -3.91292,1.28958 4.92466,-8.64746 m 31.75242,-5.14212 -13.88253,1.35416 m 0.99504,-6.5733 -0.99504,6.5733 m 8.20545,-5.9123 -8.20545,5.9123 m 8.20545,-5.9123 0.16899,-4.76478 m 11.83101,16.32292 -6.32292,-7 m 8.40904,-7.39731 -2.29178,7.75009 m 11.12872,-7.13123 -11.12872,7.13123 m 11.12872,-7.13123 7.42972,-0.82466 m -56.7809,6.45904 7.75104,-8.17885 m -3.98244,13.6757 3.98244,-13.6757 m -3.01454,9.50176 -11.30838,3.82116 m -13.14162,-3.6771 13.14162,3.6771 m 17.32292,-1.32292 -10.39826,2.46504 m 10.39826,-2.46504 3.85252,-11.01484 m -3.85252,11.01484 8.46667,-7.86646 m -0.42314,-7.13354 7.80254,3 m -11.99355,0.98516 11.99355,-0.98516 m -11.99355,0.98516 4.19101,-3.98516 m -4.19101,3.98516 -6.85252,-0.98516 m 6.85252,0.98516 4.61415,3.11862 m 7.3794,-4.10378 -7.3794,4.13354 m 7.3794,-4.13354 10.0046,-2.73494 m -10.17359,7.49972 10.17359,-7.49972 m -10.17359,7.49972 5.67708,4.55814 m 1.32292,-5 7.08612,-2.39731 m -7.08612,2.39731 -1.32292,5 m 1.32292,-5 3.17359,-7.05786 m 3.91253,4.66055 -3.91253,-4.66055 m 3.91253,4.66055 5.33514,-1.92561 m 7.0036,-0.67708 -7.0036,0.67708 m 7.0036,-0.67708 3.92792,2.39689 m 2.0681,-1.75109 -2.0681,1.75109 m 2.0681,-1.75109 0.41643,-1.93269 m -2.83731,-1.71311 2.85089,1.70974 m -2.85089,-1.70974 -1.56365,-1.90227 m -6.43635,-2.09773 6.43635,2.09773 m -6.43635,-2.09773 -11.82641,4.47815 m -17.80714,0.10993 17.80714,0.35406 m -17.80714,-0.35406 -11.04353,3.089 m -15.32292,9.64583 15.32292,-9.64583 m -15.22264,9.64583 7.4716,-1.46698 m -19.7135,1.46697 h 12.14162 m 53.42126,-15.61943 v 1.97788 l 1.12571,1.07311 -0.16833,-0.52603 -0.13677,-1.62018 1.30456,0.39175 0.98895,-0.38123 z m 5.81792,1.86216 1.76082,1.43436 h 1.7636 l -0.95738,-0.99999 z m 5.76082,1.6833 v 0.75106 l 1,1.00001 0.57003,-0.0465 0.29313,-1.22566 -1.25827,-0.76753 z m -24,11.75107 c 0,0.73063 -0.59229,1.32292 -1.32292,1.32292 -0.73063,0 -1.32291,-0.59229 -1.32291,-1.32292 0,-0.73063 0.59228,-1.32292 1.32291,-1.32292 0.73063,0 1.32292,0.59229 1.32292,1.32292 z m -5.67709,-4.55814 c 0,0.73063 -0.59228,1.32292 -1.32291,1.32292 -0.73063,0 -1.32292,-0.59229 -1.32292,-1.32292 0,-0.73063 0.59229,-1.32291 1.32292,-1.32291 0.73062,0 1.32291,0.59229 1.32291,1.32291 z m 14.08613,-2.83917 c 0,0.73063 -0.59229,1.32292 -1.32292,1.32292 -0.73063,0 -1.32291,-0.59229 -1.32291,-1.32292 0,-0.73062 0.59229,-1.32291 1.32291,-1.32291 0.73063,0 1.32292,0.59228 1.32292,1.32291 z m -3.91254,-4.66055 c 0,0.73063 -0.59228,1.32292 -1.32291,1.32292 -0.73063,0 -1.32292,-0.59229 -1.32292,-1.32292 0,-0.73063 0.59229,-1.32292 1.32292,-1.32292 0.73063,0 1.32291,0.59229 1.32291,1.32292 z m -10.0046,2.73494 c 0,0.73062 -0.59229,1.32291 -1.32291,1.32291 -0.73063,0 -1.32292,-0.59228 -1.32292,-1.32291 0,-0.73063 0.59229,-1.32292 1.32292,-1.32292 0.73063,0 1.32291,0.59229 1.32291,1.32292 z m -7.80253,-3 c 0,0.73063 -0.59229,1.32291 -1.32292,1.32291 -0.73063,0 -1.32292,-0.59228 -1.32292,-1.32291 0,-0.73063 0.59229,-1.32292 1.32292,-1.32292 0.73063,0 1.32292,0.59229 1.32292,1.32292 z m -11.04354,3 c 0,0.73062 -0.59229,1.32291 -1.32291,1.32291 -0.73063,0 -1.32292,-0.59229 -1.32292,-1.32291 0,-0.73063 0.59229,-1.32292 1.32292,-1.32292 0.73062,0 1.32291,0.59229 1.32291,1.32292 z m 11.46667,4.13354 c 0,0.73063 -0.59228,1.32292 -1.32291,1.32292 -0.73063,0 -1.32292,-0.59229 -1.32292,-1.32292 0,-0.73063 0.59229,-1.32291 1.32292,-1.32291 0.73062,0 1.32291,0.59229 1.32291,1.32291 z m -8.46667,7.86646 c 0,0.73062 -0.59229,1.32291 -1.32291,1.32291 -0.73063,0 -1.32292,-0.59229 -1.32292,-1.32291 0,-0.73063 0.59229,-1.32292 1.32292,-1.32292 0.73062,0 1.32291,0.59229 1.32291,1.32292 z m -10.75104,-3.82115 c 0,0.73062 -0.59229,1.32291 -1.32291,1.32291 -0.73063,0 -1.32291,-0.59229 -1.32292,-1.32291 0,-0.73063 0.59229,-1.32292 1.32292,-1.32292 0.73063,0 1.32292,0.59229 1.32291,1.32292 z m -7.57188,1.46698 c 0,0.73062 -0.59229,1.32291 -1.32291,1.32291 -0.73063,0 -1.32292,-0.59229 -1.32292,-1.32291 0,-0.73063 0.59229,-1.32292 1.32292,-1.32292 0.73063,0 1.32292,0.59229 1.32291,1.32292 z m -12.14161,0 c -10e-6,0.73062 -0.5923,1.32291 -1.32292,1.32291 -0.73063,0 -1.32291,-0.59229 -1.32292,-1.32291 0,-0.73063 0.59229,-1.32292 1.32292,-1.32292 0.73063,0 1.32292,0.59229 1.32292,1.32292 z" /></g></svg>
